<svg xmlns="http://www.w3.org/2000/svg" width="28" height="28" viewBox="0 0 28 28">
  <g id="原点" transform="translate(-3650 -2217)">
    <rect id="矩形_794" data-name="矩形 794" width="28" height="28" transform="translate(3650 2217)" fill="rgba(255,64,64,0.31)" opacity="0"/>
    <path id="原点-2" data-name="原点" d="M8.5-36.334a8.5,8.5,0,0,1-8.5-8.5,8.5,8.5,0,0,1,8.5-8.5,8.5,8.5,0,0,1,8.5,8.5A8.5,8.5,0,0,1,8.5-36.334ZM7.864-51.6a6.847,6.847,0,0,0-6.11,5.92H5.525v1.7H1.754a6.847,6.847,0,0,0,6.11,5.92v-3.765h1.7v3.71a6.851,6.851,0,0,0,5.682-5.865H11.475v-1.7h3.771a6.851,6.851,0,0,0-5.682-5.866v3.771h-1.7Z" transform="translate(3656 2276.333)" fill="#343a40" fill-rule="evenodd"/>
  </g>
</svg>
