<svg xmlns="http://www.w3.org/2000/svg" width="28" height="28" viewBox="0 0 28 28">
  <g id="连接工具" transform="translate(-3748 -1659)">
    <rect id="矩形_777" data-name="矩形 777" width="28" height="28" transform="translate(3748 1659)" fill="rgba(255,64,64,0.31)" opacity="0"/>
    <path id="连接工具-2" data-name="连接工具" d="M211.81,208.095l-2.834-2.819c-.253-.252-.734-.283-.871.045a1.491,1.491,0,0,0-.046.336v1.9h-9.594a2.3,2.3,0,1,1,0-4.607h8.7a4.282,4.282,0,1,0,0-8.563H198.65a3.381,3.381,0,1,0,0,1.977h8.517a2.3,2.3,0,1,1,0,4.607h-8.7a4.282,4.282,0,1,0,0,8.563h9.594v1.808a1.48,1.48,0,0,0,.046.387.542.542,0,0,0,.87.09l2.835-2.818a.642.642,0,0,0,0-.912ZM195.4,196.784a1.4,1.4,0,1,1,1.41-1.4,1.408,1.408,0,0,1-1.41,1.4Z" transform="translate(3560 1471)" fill="#4c4c4b"/>
  </g>
</svg>
