<svg xmlns="http://www.w3.org/2000/svg" width="28" height="28" viewBox="0 0 28 28">
  <g id="数据存储" transform="translate(-3748 -2006)">
    <rect id="矩形_785" data-name="矩形 785" width="28" height="28" transform="translate(3748 2006)" fill="rgba(255,64,64,0.31)" opacity="0"/>
    <path id="数据存储-2" data-name="数据存储" d="M-22.73-482.153v-11.455c0-.031,0-.062,0-.093s0-.06,0-.09c0-2.534,4.253-4.59,9.5-4.59s9.5,2.056,9.5,4.59c0,.03,0,.06,0,.09s0,.062,0,.093v3.915h0q0,.045,0,.09v3.771h0q0,.045,0,.09v3.589c0,2.635-4.253,4.773-9.5,4.773S-22.73-479.517-22.73-482.153Zm1.9,0c0,1.009,2.885,2.863,7.6,2.863s7.6-1.854,7.6-2.863v-.924a14.609,14.609,0,0,1-7.6,1.834,14.6,14.6,0,0,1-7.6-1.836Zm0-3.679c0,.971,2.885,2.754,7.6,2.754,4.648,0,7.517-1.733,7.6-2.713v-1.147a14.609,14.609,0,0,1-7.6,1.834,14.6,14.6,0,0,1-7.6-1.836Zm0-3.861c0,.971,2.885,2.754,7.6,2.754,4.648,0,7.517-1.733,7.6-2.713v-1.384a14.605,14.605,0,0,1-7.6,1.835,14.607,14.607,0,0,1-7.6-1.835Zm7.6-1.344c4.573,0,7.424-1.677,7.591-2.664-.167-1.025-3.018-2.77-7.591-2.77s-7.425,1.744-7.592,2.77C-20.655-492.714-17.8-491.036-13.23-491.036Z" transform="translate(3774.73 2507.38)" fill="#4c4c4b"/>
  </g>
</svg>
