<svg xmlns="http://www.w3.org/2000/svg" width="28" height="28" viewBox="0 0 28 28">
  <g id="结束事件" transform="translate(-3674 -1862)">
    <rect id="矩形_782" data-name="矩形 782" width="28" height="28" transform="translate(3674 1862)" fill="rgba(255,64,64,0.31)" opacity="0"/>
    <path id="结束事件-2" data-name="结束事件" d="M94.414-39.033h6.6v-6.6h-6.6Zm3.3,5.5a8.842,8.842,0,0,0,8.8-8.8,8.842,8.842,0,0,0-8.8-8.8,8.842,8.842,0,0,0-8.8,8.8A8.842,8.842,0,0,0,97.714-33.533Zm0,2.2a11,11,0,0,1-11-11,11,11,0,0,1,11-11,11,11,0,0,1,11,11A11,11,0,0,1,97.714-31.333Z" transform="translate(3590.286 1918.333)" fill="#4c4c4b" fill-rule="evenodd"/>
  </g>
</svg>
