<svg xmlns="http://www.w3.org/2000/svg" width="28" height="28" viewBox="0 0 28 28">
  <g id="抓手工具" transform="translate(-3674 -1587)">
    <rect id="矩形_775" data-name="矩形 775" width="28" height="28" transform="translate(3674 1587)" fill="rgba(255,64,64,0.31)" opacity="0"/>
    <path id="抓手工具-2" data-name="抓手工具" d="M156.3,105.172a11.622,11.622,0,0,1-2.09-.175,7.079,7.079,0,0,1-4.008-2.248,12.947,12.947,0,0,1-1.6-2.376c-.149-.263-.3-.52-.453-.776a25.369,25.369,0,0,0-1.983-2.878,4.326,4.326,0,0,1-1.251-3.608,2.669,2.669,0,0,1,1.6-1.906,2.757,2.757,0,0,1,2.511.213,4.357,4.357,0,0,1,.411.286V86.4a2.5,2.5,0,0,1,2.573-2.417,2.76,2.76,0,0,1,.828.128,2.611,2.611,0,0,1,4.991-.187,2.7,2.7,0,0,1,.875-.146A2.5,2.5,0,0,1,161.28,86.2v1a2.827,2.827,0,0,1,.78-.111,2.613,2.613,0,0,1,2.716,2.417c0,.169.155,4.84,0,7.087C164.418,102.043,161.321,105.172,156.3,105.172Zm-8.737-12.423a.976.976,0,0,0-.357.07.909.909,0,0,0-.542.66,2.821,2.821,0,0,0,.893,2.148,26.789,26.789,0,0,1,2.126,3.077l.476.812a12.127,12.127,0,0,0,1.382,2.078,5.385,5.385,0,0,0,2.978,1.681,9.752,9.752,0,0,0,1.787.146c5.151,0,6.491-3.777,6.712-6.953.149-2.154,0-6.889,0-6.936,0-.362-.465-.695-.929-.695a.734.734,0,0,0-.78.666v4.466a.894.894,0,0,1-1.787,0V86.2a.794.794,0,0,0-1.572,0V93.98a.894.894,0,0,1-1.787,0V84.564a.795.795,0,0,0-1.566,0v9.405a.893.893,0,0,1-1.787,0v-7.59a.794.794,0,0,0-1.572,0v7.706a.891.891,0,0,1-1.727.292l-.077-.105c-.119-.175-.244-.344-.375-.514a3.821,3.821,0,0,0-.965-.9A.963.963,0,0,0,147.564,92.749ZM149.44,94.115Z" transform="translate(3533.156 1507.828)" fill="#4c4c4b"/>
  </g>
</svg>
