<svg xmlns="http://www.w3.org/2000/svg" width="28" height="28" viewBox="0 0 28 28">
  <g id="中间事件" transform="translate(-3748 -1792)">
    <rect id="矩形_780" data-name="矩形 780" width="28" height="28" transform="translate(3748 1792)" fill="rgba(255,64,64,0.31)" opacity="0"/>
    <path id="中间事件-2" data-name="中间事件" d="M97.714-33.533a8.842,8.842,0,0,0,8.8-8.8,8.842,8.842,0,0,0-8.8-8.8,8.842,8.842,0,0,0-8.8,8.8A8.842,8.842,0,0,0,97.714-33.533Zm0,2.2a11,11,0,0,1-11-11,11,11,0,0,1,11-11,11,11,0,0,1,11,11A11,11,0,0,1,97.714-31.333Z" transform="translate(3664.286 1848.333)" fill="#4c4c4b" fill-rule="evenodd"/>
  </g>
</svg>
