<svg xmlns="http://www.w3.org/2000/svg" width="28" height="28" viewBox="0 0 28 28">
  <g id="套索工具" transform="translate(-3748 -1587)">
    <rect id="矩形_776" data-name="矩形 776" width="28" height="28" transform="translate(3748 1587)" fill="rgba(255,64,64,0.31)" opacity="0"/>
    <path id="套索工具-2" data-name="套索工具" d="M144.842,133.1h2.105V128h-3.158v2.041h1.053Zm-10.526,11.225h3.158v2.041h-3.158ZM136.421,128h4.211v2.041h-4.211ZM128,134.122h2.105V138.2H128Zm16.842,2.041h2.105V138.2h-2.105Zm-14.737,5.1H128v5.1h3.158v-2.041h-1.053ZM128,131.061h2.105v-1.02h3.158V128H128Zm19.684,10.816-9.158-5.612a.4.4,0,0,0-.316-.1.648.648,0,0,0-.421.1.785.785,0,0,0-.316.714l2.421,10.2a.49.49,0,0,0,.526.51h.105a.921.921,0,0,0,.632-.306l1.158-1.531,1.368,1.837a.582.582,0,0,0,.526.306.4.4,0,0,0,.316-.1l2.316-1.531a.633.633,0,0,0,.105-.918l-1.368-1.837,1.895-.51c.211-.1.526-.306.526-.612A.72.72,0,0,0,147.684,141.878Z" transform="translate(3624 1463)" fill="#4c4c4b"/>
  </g>
</svg>
