<svg xmlns="http://www.w3.org/2000/svg" width="28" height="28" viewBox="0 0 28 28">
  <g id="开始事件" transform="translate(-3674 -1792)">
    <rect id="矩形_779" data-name="矩形 779" width="28" height="28" transform="translate(3674 1792)" fill="rgba(255,64,64,0.31)" opacity="0"/>
    <path id="开始事件-2" data-name="开始事件" d="M9.484-46.277,14.851-42.7a.441.441,0,0,1,.2.366.44.44,0,0,1-.2.366L9.483-38.389a.439.439,0,0,1-.243.073.442.442,0,0,1-.44-.438v-7.157a.442.442,0,0,1,.44-.439A.438.438,0,0,1,9.484-46.277ZM11-33.533a8.842,8.842,0,0,0,8.8-8.8,8.842,8.842,0,0,0-8.8-8.8,8.842,8.842,0,0,0-8.8,8.8A8.842,8.842,0,0,0,11-33.533Zm0,2.2a11,11,0,0,1-11-11,11,11,0,0,1,11-11,11,11,0,0,1,11,11A11,11,0,0,1,11-31.333Z" transform="translate(3677 1848.333)" fill="#4c4c4b" fill-rule="evenodd"/>
  </g>
</svg>
